<svg xmlns="http://www.w3.org/2000/svg" xmlns:xlink="http://www.w3.org/1999/xlink" version="1.1" id="Layer_1" x="0px" y="0px" viewBox="0 0 1960 930" style="enable-background:new 0 0 1960 930;" xml:space="preserve">
<style type="text/css">
	.st0{fill:url(#SVGID_1_);}
	.st1{opacity:0.3;}
	.st2{fill:#FFFFFF;}
	.st3{opacity:0.3;fill:#FFFFFF;}
	.st4{opacity:0.2;fill:#FFFFFF;}
	.st5{opacity:0.26;fill:#FFFFFF;}
	.st6{opacity:0.6;fill:#7C74B4;}
	.st7{opacity:0.6;fill:none;stroke:#FFFFFF;stroke-width:3;stroke-miterlimit:10;}
	.st8{opacity:0.5;}
	.st9{fill:none;stroke:#FFFFFF;stroke-width:4;stroke-linecap:round;stroke-linejoin:round;stroke-miterlimit:10;}
</style>
<linearGradient id="SVGID_1_" gradientUnits="userSpaceOnUse" x1="0" y1="464.5" x2="1960" y2="464.5">
	<stop offset="0.3871" style="stop-color:#4AB6FF"/>
	<stop offset="1" style="stop-color:#9975FF"/>
</linearGradient>
<rect y="-0.5" class="st0" width="1960" height="930"/>
<g id="Bg_1_" class="st1">
	<g>
		
			<rect x="124.8" y="561.2" transform="matrix(0.7071 -0.7071 0.7071 0.7071 -365.072 264.1783)" class="st2" width="23.1" height="23.1"/>
		
			<rect x="644" y="525" transform="matrix(0.7071 -0.7071 0.7071 0.7071 -184.6993 614.2156)" class="st2" width="10.2" height="10.2"/>
		
			<rect x="210.9" y="654.3" transform="matrix(0.7071 -0.7071 0.7071 0.7071 -403.0009 345.8917)" class="st2" width="10.2" height="10.2"/>
		
			<rect x="61.6" y="611.4" transform="matrix(0.7071 -0.7071 0.7071 0.7071 -416.3739 227.6849)" class="st2" width="10.2" height="10.2"/>
	</g>
</g>
<g>
	
		<rect x="1823.3" y="592" transform="matrix(0.863 0.5051 -0.5051 0.863 556.1683 -844.2039)" class="st3" width="23.1" height="23.1"/>
	
		<rect x="1920" y="641.6" transform="matrix(0.863 0.5051 -0.5051 0.863 590.2956 -883.829)" class="st3" width="10.2" height="10.2"/>
	
		<rect x="1809.9" y="662.4" transform="matrix(0.863 0.5051 -0.5051 0.863 585.7566 -825.3756)" class="st3" width="10.2" height="10.2"/>
</g>
<path class="st4" d="M-178,1078.6h2117.2c21.9,9.3,46,14.5,71.3,14.5v-14.5h13V778.1l-13-0.3v-48.6c-39.4,0-75.9,12.5-105.7,33.8  c-15.5-17.7-38.3-28.8-63.7-28.8c-16.9,0-32.7,5-45.9,13.5c-13.9-23.2-39.3-38.8-68.3-38.8c-31.7,0-59.1,18.6-71.9,45.5  c-21.3-20-49.9-32.3-81.4-32.3c-44,0-82.4,23.9-102.9,59.5c-10.8-5.9-23.1-9.2-36.2-9.2c-19.9,0-38,7.7-51.5,20.2  c-7.4-3-15.4-4.6-23.8-4.6c-20.3,0-38.4,9.5-50.2,24.2c-6.3-6.1-14.9-9.9-24.4-9.9c-7.8,0-15,2.5-20.8,6.8  c-14.4-14.1-34-22.9-55.8-22.9c-21,0-40.1,8.2-54.3,21.5c-7.7-11.6-20.9-19.3-35.8-19.3c-6.8,0-13.3,1.6-19,4.4  c-12.7-30.3-42.6-51.5-77.5-51.5c-27.1,0-51.2,12.9-66.6,32.8c-13.3-10.1-29.9-16.1-47.9-16.1c-11,0-21.4,2.2-30.9,6.2  c-20-20.7-48.1-33.7-79.3-33.7c-37,0-69.7,18.2-89.7,46.2c-8.7-4.4-18.5-6.9-28.9-6.9c-25,0-46.7,14.3-57.4,35.1  c-8.3-14.9-24.1-24.9-42.3-24.9c-15.8,0-29.8,7.6-38.7,19.3c-15-28.6-45-48.1-79.5-48.1c-17.4,0-33.6,5-47.3,13.5  c-25.3-28.4-62.2-46.2-103.2-46.2c-31.4,0-60.4,10.5-83.7,28.2c-10.5-7.5-23.4-11.9-37.3-11.9c-14.6,0-28,4.9-38.8,13  c-18.4-13.8-41.3-22-66.1-22c-54.9,0-100.4,40.1-108.8,92.7L-178,786.6V1078.6z M616.6,858.6c0.4-0.5,0.8-1.1,1.2-1.6  c0.2,0.5,0.4,1,0.6,1.5L616.6,858.6z"/>
<g>
	<path class="st5" d="M506.1,681.3l-43.3-7.1c-4.1-0.7-7.9,2.1-8.6,6.2l-3.8,23.3c-0.7,4.1,2.1,7.9,6.2,8.6l13.2,2.2   c0.5,0.1,1,0.4,1.3,0.8l4.8,6.6c0.6,0.9,1.9,1.1,2.7,0.4l6.6-4.8c0.4-0.3,0.9-0.4,1.5-0.3l13.2,2.2c4.1,0.7,7.9-2.1,8.6-6.2   l3.8-23.3C513,685.8,510.2,682,506.1,681.3z"/>
	<path class="st2" d="M495.3,694.1c-0.7-4.2-7.7-9.4-13.2-1.8c-2.9-8.9-11.2-6.3-13.1-2.5c-3.3,6.3,0.9,12.2,10.3,20.1   C490.7,705.5,496.5,701.2,495.3,694.1z"/>
</g>
<g>
	<g>
		<path class="st6" d="M1581.8,653.3l1,6.1c1.3,8.3-4.4,16.1-12.7,17.4l0,0l1.6,9.9c0.2,1-1,1.7-1.8,1.1l-12.9-8.9l-50.1,7.9    c-8.3,1.3-16.1-4.4-17.4-12.7l-1-6.1c-1.3-8.3,4.4-16.1,12.7-17.4l63.2-10C1572.6,639.3,1580.5,645,1581.8,653.3z"/>
		<path class="st2" d="M1540,664.2c-0.6,2.5-3.2,4.1-5.7,3.4c-2.5-0.6-4.1-3.2-3.4-5.7c0.6-2.5,3.2-4.1,5.7-3.4    C1539.1,659.1,1540.6,661.7,1540,664.2z"/>
		<path class="st2" d="M1558.6,661c-0.6,2.5-3.2,4.1-5.7,3.4c-2.5-0.6-4.1-3.2-3.4-5.7c0.6-2.5,3.2-4.1,5.7-3.4    C1557.8,655.9,1559.3,658.5,1558.6,661z"/>
		
			<ellipse transform="matrix(0.8748 -0.4846 0.4846 0.8748 -132.6262 818.3515)" class="st2" cx="1516.8" cy="665.7" rx="4.7" ry="4.7"/>
	</g>
	<path class="st7" d="M1590.7,651.9l1.4,8.9c1.9,12.1-4.5,23.2-14.3,24.8l0,0l2.3,14.4c0.2,1.5-1.1,2.4-2.1,1.6l-20.5-12.3   l-54.2,8.1c-9.8,1.6-19.3-7-21.2-19.1l-1.4-8.9c-1.9-12.1,4.5-23.2,14.3-24.8l74.6-11.8C1579.3,631.2,1588.8,639.8,1590.7,651.9z"/>
</g>
<g class="st8">
	<line class="st9" x1="1181.9" y1="732.6" x2="1162.4" y2="764.4"/>
	<line class="st9" x1="1195.7" y1="734.4" x2="1176.2" y2="766.1"/>
	<line class="st9" x1="1199" y1="744.9" x2="1165" y2="740.6"/>
	<line class="st9" x1="1192.3" y1="757.1" x2="1158.3" y2="752.8"/>
</g>
</svg>